<mxfile host="app.diagrams.net" agent="Mozilla/5.0 (Windows NT 10.0; Win64; x64) AppleWebKit/537.36 (KHTML, like Gecko) Chrome/130.0.0.0 YaBrowser/24.12.0.0 Safari/537.36" version="24.8.6">
  <diagram name="Page-1" id="c37626ed-c26b-45fb-9056-f9ebc6bb27b6">
    <mxGraphModel dx="772" dy="330" grid="1" gridSize="10" guides="1" tooltips="1" connect="1" arrows="1" fold="1" page="1" pageScale="1" pageWidth="1100" pageHeight="850" background="none" math="0" shadow="0">
      <root>
        <mxCell id="0" />
        <mxCell id="1" parent="0" />
        <mxCell id="9AFmzdEa3dv1COguM4qp-1" value="" style="shape=mxgraph.cisco.switches.workgroup_switch;sketch=0;html=1;pointerEvents=1;dashed=0;fillColor=#036897;strokeColor=#ffffff;strokeWidth=2;verticalLabelPosition=bottom;verticalAlign=top;align=center;outlineConnect=0;" parent="1" vertex="1">
          <mxGeometry x="170" y="103" width="101" height="50" as="geometry" />
        </mxCell>
        <mxCell id="9AFmzdEa3dv1COguM4qp-2" value="" style="shape=mxgraph.cisco.switches.workgroup_switch;sketch=0;html=1;pointerEvents=1;dashed=0;fillColor=#036897;strokeColor=#ffffff;strokeWidth=2;verticalLabelPosition=bottom;verticalAlign=top;align=center;outlineConnect=0;" parent="1" vertex="1">
          <mxGeometry x="580" y="100" width="101" height="50" as="geometry" />
        </mxCell>
        <mxCell id="9AFmzdEa3dv1COguM4qp-3" value="" style="shape=mxgraph.cisco.switches.workgroup_switch;sketch=0;html=1;pointerEvents=1;dashed=0;fillColor=#036897;strokeColor=#ffffff;strokeWidth=2;verticalLabelPosition=bottom;verticalAlign=top;align=center;outlineConnect=0;" parent="1" vertex="1">
          <mxGeometry x="370" y="307" width="101" height="50" as="geometry" />
        </mxCell>
        <mxCell id="9AFmzdEa3dv1COguM4qp-7" value="" style="orthogonalLoop=1;jettySize=auto;html=1;rounded=0;exitX=1;exitY=0;exitDx=0;exitDy=0;exitPerimeter=0;shape=link;" parent="1" source="9AFmzdEa3dv1COguM4qp-3" target="9AFmzdEa3dv1COguM4qp-2" edge="1">
          <mxGeometry width="80" relative="1" as="geometry">
            <mxPoint x="520" y="150" as="sourcePoint" />
            <mxPoint x="600" y="150" as="targetPoint" />
          </mxGeometry>
        </mxCell>
        <mxCell id="9AFmzdEa3dv1COguM4qp-8" value="" style="orthogonalLoop=1;jettySize=auto;html=1;rounded=0;shape=link;" parent="1" source="9AFmzdEa3dv1COguM4qp-3" target="9AFmzdEa3dv1COguM4qp-1" edge="1">
          <mxGeometry width="80" relative="1" as="geometry">
            <mxPoint x="441" y="330" as="sourcePoint" />
            <mxPoint x="615" y="160" as="targetPoint" />
          </mxGeometry>
        </mxCell>
        <mxCell id="9AFmzdEa3dv1COguM4qp-9" value="" style="orthogonalLoop=1;jettySize=auto;html=1;rounded=0;shape=link;" parent="1" source="9AFmzdEa3dv1COguM4qp-2" target="9AFmzdEa3dv1COguM4qp-1" edge="1">
          <mxGeometry width="80" relative="1" as="geometry">
            <mxPoint x="431" y="220" as="sourcePoint" />
            <mxPoint x="310" y="60" as="targetPoint" />
          </mxGeometry>
        </mxCell>
        <mxCell id="9AFmzdEa3dv1COguM4qp-10" value="S1 MAC:aabb.cc00.1000&amp;nbsp;" style="text;strokeColor=none;align=center;fillColor=none;html=1;verticalAlign=middle;whiteSpace=wrap;rounded=0;" parent="1" vertex="1">
          <mxGeometry x="121" y="73" width="210" height="30" as="geometry" />
        </mxCell>
        <mxCell id="9AFmzdEa3dv1COguM4qp-11" value="S3 MAC: aabb.cc00.2000" style="text;strokeColor=none;align=center;fillColor=none;html=1;verticalAlign=middle;whiteSpace=wrap;rounded=0;" parent="1" vertex="1">
          <mxGeometry x="584.5" y="73" width="161" height="30" as="geometry" />
        </mxCell>
        <mxCell id="9AFmzdEa3dv1COguM4qp-12" value="S2&amp;nbsp; MAC:aabb.cc00.3000" style="text;strokeColor=none;align=center;fillColor=none;html=1;verticalAlign=middle;whiteSpace=wrap;rounded=0;" parent="1" vertex="1">
          <mxGeometry x="338" y="357" width="170" height="30" as="geometry" />
        </mxCell>
        <mxCell id="9AFmzdEa3dv1COguM4qp-13" value="e0/3 a/shutdown" style="text;strokeColor=none;align=center;fillColor=none;html=1;verticalAlign=middle;whiteSpace=wrap;rounded=0;" parent="1" vertex="1">
          <mxGeometry x="260" y="100" width="120" height="30" as="geometry" />
        </mxCell>
        <mxCell id="9AFmzdEa3dv1COguM4qp-14" value="e0/3" style="text;strokeColor=none;align=center;fillColor=none;html=1;verticalAlign=middle;whiteSpace=wrap;rounded=0;" parent="1" vertex="1">
          <mxGeometry x="536" y="100" width="60" height="30" as="geometry" />
        </mxCell>
        <mxCell id="9AFmzdEa3dv1COguM4qp-15" value="e0/3 a/shutdown" style="text;strokeColor=none;align=center;fillColor=none;html=1;verticalAlign=middle;whiteSpace=wrap;rounded=0;" parent="1" vertex="1">
          <mxGeometry x="460" y="300" width="120" height="30" as="geometry" />
        </mxCell>
        <mxCell id="9AFmzdEa3dv1COguM4qp-16" value="e0/0&amp;nbsp;&amp;nbsp;Desg" style="text;strokeColor=none;align=center;fillColor=none;html=1;verticalAlign=middle;whiteSpace=wrap;rounded=0;" parent="1" vertex="1">
          <mxGeometry x="194" y="153" width="60" height="30" as="geometry" />
        </mxCell>
        <mxCell id="9AFmzdEa3dv1COguM4qp-17" value="e0/0&amp;nbsp;&amp;nbsp;&amp;nbsp;Desg" style="text;strokeColor=none;align=center;fillColor=none;html=1;verticalAlign=middle;whiteSpace=wrap;rounded=0;" parent="1" vertex="1">
          <mxGeometry x="534" y="147" width="60" height="30" as="geometry" />
        </mxCell>
        <mxCell id="9AFmzdEa3dv1COguM4qp-18" value="e0/0&amp;nbsp;root" style="text;strokeColor=none;align=center;fillColor=none;html=1;verticalAlign=middle;whiteSpace=wrap;rounded=0;" parent="1" vertex="1">
          <mxGeometry x="330" y="293" width="60" height="30" as="geometry" />
        </mxCell>
        <mxCell id="9AFmzdEa3dv1COguM4qp-19" value="e0/1 a/shutdown" style="text;strokeColor=none;align=center;fillColor=none;html=1;verticalAlign=middle;whiteSpace=wrap;rounded=0;" parent="1" vertex="1">
          <mxGeometry x="232" y="135" width="128" height="30" as="geometry" />
        </mxCell>
        <mxCell id="9AFmzdEa3dv1COguM4qp-20" value="e0/1 a/shutdown" style="text;strokeColor=none;align=center;fillColor=none;html=1;verticalAlign=middle;whiteSpace=wrap;rounded=0;" parent="1" vertex="1">
          <mxGeometry x="596" y="147" width="104" height="30" as="geometry" />
        </mxCell>
        <mxCell id="9AFmzdEa3dv1COguM4qp-21" value="e0/1 a/shutdown" style="text;strokeColor=none;align=center;fillColor=none;html=1;verticalAlign=middle;whiteSpace=wrap;rounded=0;" parent="1" vertex="1">
          <mxGeometry x="378" y="272" width="100" height="30" as="geometry" />
        </mxCell>
        <mxCell id="9AFmzdEa3dv1COguM4qp-22" value="e0/2&amp;nbsp;&amp;nbsp;Altn" style="text;strokeColor=none;align=center;fillColor=none;html=1;verticalAlign=middle;whiteSpace=wrap;rounded=0;" parent="1" vertex="1">
          <mxGeometry x="441" y="252" width="60" height="30" as="geometry" />
        </mxCell>
        <mxCell id="9AFmzdEa3dv1COguM4qp-23" value="e0/2&amp;nbsp;&amp;nbsp;Desg" style="text;strokeColor=none;align=center;fillColor=none;html=1;verticalAlign=middle;whiteSpace=wrap;rounded=0;" parent="1" vertex="1">
          <mxGeometry x="278" y="123" width="60" height="30" as="geometry" />
        </mxCell>
        <mxCell id="9AFmzdEa3dv1COguM4qp-24" value="e0/2&amp;nbsp;&amp;nbsp;root" style="text;strokeColor=none;align=center;fillColor=none;html=1;verticalAlign=middle;whiteSpace=wrap;rounded=0;" parent="1" vertex="1">
          <mxGeometry x="520" y="123" width="60" height="30" as="geometry" />
        </mxCell>
        <mxCell id="SqgIeFdHdZ6kIC64qtme-1" value="Part 2&lt;div&gt;&lt;div&gt;S1 is root&lt;/div&gt;&lt;div&gt;Root ID&amp;nbsp; &amp;nbsp; Priority&amp;nbsp; &amp;nbsp; 32769&lt;/div&gt;&lt;div&gt;Address&amp;nbsp; &amp;nbsp; &amp;nbsp;aabb.cc00.1000&lt;/div&gt;&lt;div&gt;&lt;br&gt;&lt;/div&gt;&lt;div&gt;Et0/0&amp;nbsp; &amp;nbsp; &amp;nbsp; &amp;nbsp; &amp;nbsp; &amp;nbsp; &amp;nbsp; &amp;nbsp;Desg FWD 100&amp;nbsp; &amp;nbsp; &amp;nbsp; &amp;nbsp;128.1&amp;nbsp; &amp;nbsp; Shr&lt;/div&gt;&lt;div&gt;Et0/2&amp;nbsp; &amp;nbsp; &amp;nbsp; &amp;nbsp; &amp;nbsp; &amp;nbsp; &amp;nbsp; &amp;nbsp;Desg FWD 100&amp;nbsp; &amp;nbsp; &amp;nbsp; &amp;nbsp;128.3&amp;nbsp; &amp;nbsp; Shr&lt;/div&gt;&lt;div&gt;&lt;br&gt;&lt;/div&gt;&lt;div&gt;S2&lt;/div&gt;&lt;div&gt;&lt;br&gt;&lt;/div&gt;&lt;div&gt;Et0/0&amp;nbsp; &amp;nbsp; &amp;nbsp; &amp;nbsp; &amp;nbsp; &amp;nbsp; &amp;nbsp; &amp;nbsp;Desg FWD 100&amp;nbsp; &amp;nbsp; &amp;nbsp; &amp;nbsp;128.1&amp;nbsp; &amp;nbsp; Shr&lt;/div&gt;&lt;div&gt;Et0/2&amp;nbsp; &amp;nbsp; &amp;nbsp; &amp;nbsp; &amp;nbsp; &amp;nbsp; &amp;nbsp; &amp;nbsp;Root FWD 100&amp;nbsp; &amp;nbsp; &amp;nbsp; &amp;nbsp;128.3&amp;nbsp; &amp;nbsp; Shr&lt;/div&gt;&lt;div&gt;&lt;br&gt;&lt;/div&gt;&lt;div&gt;S3&lt;/div&gt;&lt;div&gt;&lt;br&gt;&lt;/div&gt;&lt;div&gt;Et0/0&amp;nbsp; &amp;nbsp; &amp;nbsp; &amp;nbsp; &amp;nbsp; &amp;nbsp; &amp;nbsp; &amp;nbsp;Root FWD 100&amp;nbsp; &amp;nbsp; &amp;nbsp; &amp;nbsp;128.1&amp;nbsp; &amp;nbsp; Shr&lt;/div&gt;&lt;div&gt;Et0/2&amp;nbsp; &amp;nbsp; &amp;nbsp; &amp;nbsp; &amp;nbsp; &amp;nbsp; &amp;nbsp; &amp;nbsp;Altn BLK 100&amp;nbsp; &amp;nbsp; &amp;nbsp; &amp;nbsp;128.3&amp;nbsp; &amp;nbsp; Shr&lt;/div&gt;&lt;/div&gt;" style="text;strokeColor=none;align=center;fillColor=none;html=1;verticalAlign=middle;whiteSpace=wrap;rounded=0;" vertex="1" parent="1">
          <mxGeometry x="750" y="190" width="320" height="30" as="geometry" />
        </mxCell>
        <mxCell id="SqgIeFdHdZ6kIC64qtme-3" value="" style="shape=mxgraph.cisco.switches.workgroup_switch;sketch=0;html=1;pointerEvents=1;dashed=0;fillColor=#036897;strokeColor=#ffffff;strokeWidth=2;verticalLabelPosition=bottom;verticalAlign=top;align=center;outlineConnect=0;" vertex="1" parent="1">
          <mxGeometry x="170" y="566" width="101" height="50" as="geometry" />
        </mxCell>
        <mxCell id="SqgIeFdHdZ6kIC64qtme-4" value="" style="shape=mxgraph.cisco.switches.workgroup_switch;sketch=0;html=1;pointerEvents=1;dashed=0;fillColor=#036897;strokeColor=#ffffff;strokeWidth=2;verticalLabelPosition=bottom;verticalAlign=top;align=center;outlineConnect=0;" vertex="1" parent="1">
          <mxGeometry x="580" y="563" width="101" height="50" as="geometry" />
        </mxCell>
        <mxCell id="SqgIeFdHdZ6kIC64qtme-5" value="" style="shape=mxgraph.cisco.switches.workgroup_switch;sketch=0;html=1;pointerEvents=1;dashed=0;fillColor=#036897;strokeColor=#ffffff;strokeWidth=2;verticalLabelPosition=bottom;verticalAlign=top;align=center;outlineConnect=0;" vertex="1" parent="1">
          <mxGeometry x="370" y="770" width="101" height="50" as="geometry" />
        </mxCell>
        <mxCell id="SqgIeFdHdZ6kIC64qtme-6" value="" style="orthogonalLoop=1;jettySize=auto;html=1;rounded=0;exitX=1;exitY=0;exitDx=0;exitDy=0;exitPerimeter=0;shape=link;" edge="1" parent="1" source="SqgIeFdHdZ6kIC64qtme-5" target="SqgIeFdHdZ6kIC64qtme-4">
          <mxGeometry width="80" relative="1" as="geometry">
            <mxPoint x="520" y="613" as="sourcePoint" />
            <mxPoint x="600" y="613" as="targetPoint" />
          </mxGeometry>
        </mxCell>
        <mxCell id="SqgIeFdHdZ6kIC64qtme-7" value="" style="orthogonalLoop=1;jettySize=auto;html=1;rounded=0;shape=link;" edge="1" parent="1" source="SqgIeFdHdZ6kIC64qtme-5" target="SqgIeFdHdZ6kIC64qtme-3">
          <mxGeometry width="80" relative="1" as="geometry">
            <mxPoint x="441" y="793" as="sourcePoint" />
            <mxPoint x="615" y="623" as="targetPoint" />
          </mxGeometry>
        </mxCell>
        <mxCell id="SqgIeFdHdZ6kIC64qtme-8" value="" style="orthogonalLoop=1;jettySize=auto;html=1;rounded=0;shape=link;" edge="1" parent="1" source="SqgIeFdHdZ6kIC64qtme-4" target="SqgIeFdHdZ6kIC64qtme-3">
          <mxGeometry width="80" relative="1" as="geometry">
            <mxPoint x="431" y="683" as="sourcePoint" />
            <mxPoint x="310" y="523" as="targetPoint" />
          </mxGeometry>
        </mxCell>
        <mxCell id="SqgIeFdHdZ6kIC64qtme-9" value="S1 MAC:aabb.cc00.1000&amp;nbsp;" style="text;strokeColor=none;align=center;fillColor=none;html=1;verticalAlign=middle;whiteSpace=wrap;rounded=0;" vertex="1" parent="1">
          <mxGeometry x="121" y="536" width="210" height="30" as="geometry" />
        </mxCell>
        <mxCell id="SqgIeFdHdZ6kIC64qtme-10" value="S3 MAC: aabb.cc00.2000" style="text;strokeColor=none;align=center;fillColor=none;html=1;verticalAlign=middle;whiteSpace=wrap;rounded=0;" vertex="1" parent="1">
          <mxGeometry x="567.5" y="533" width="161" height="30" as="geometry" />
        </mxCell>
        <mxCell id="SqgIeFdHdZ6kIC64qtme-11" value="S2&amp;nbsp; MAC:aabb.cc00.3000" style="text;strokeColor=none;align=center;fillColor=none;html=1;verticalAlign=middle;whiteSpace=wrap;rounded=0;" vertex="1" parent="1">
          <mxGeometry x="331" y="820" width="170" height="30" as="geometry" />
        </mxCell>
        <mxCell id="SqgIeFdHdZ6kIC64qtme-12" value="e0/3 a/shutdown" style="text;strokeColor=none;align=center;fillColor=none;html=1;verticalAlign=middle;whiteSpace=wrap;rounded=0;" vertex="1" parent="1">
          <mxGeometry x="260" y="563" width="120" height="30" as="geometry" />
        </mxCell>
        <mxCell id="SqgIeFdHdZ6kIC64qtme-13" value="e0/3" style="text;strokeColor=none;align=center;fillColor=none;html=1;verticalAlign=middle;whiteSpace=wrap;rounded=0;" vertex="1" parent="1">
          <mxGeometry x="536" y="563" width="60" height="30" as="geometry" />
        </mxCell>
        <mxCell id="SqgIeFdHdZ6kIC64qtme-14" value="e0/3 a/shutdown" style="text;strokeColor=none;align=center;fillColor=none;html=1;verticalAlign=middle;whiteSpace=wrap;rounded=0;" vertex="1" parent="1">
          <mxGeometry x="460" y="763" width="120" height="30" as="geometry" />
        </mxCell>
        <mxCell id="SqgIeFdHdZ6kIC64qtme-15" value="e0/0&amp;nbsp;&amp;nbsp;Desg" style="text;strokeColor=none;align=center;fillColor=none;html=1;verticalAlign=middle;whiteSpace=wrap;rounded=0;" vertex="1" parent="1">
          <mxGeometry x="194" y="616" width="60" height="30" as="geometry" />
        </mxCell>
        <mxCell id="SqgIeFdHdZ6kIC64qtme-16" value="e0/0&amp;nbsp; Altn" style="text;strokeColor=none;align=center;fillColor=none;html=1;verticalAlign=middle;whiteSpace=wrap;rounded=0;" vertex="1" parent="1">
          <mxGeometry x="534" y="610" width="60" height="30" as="geometry" />
        </mxCell>
        <mxCell id="SqgIeFdHdZ6kIC64qtme-17" value="e0/0&amp;nbsp;root" style="text;strokeColor=none;align=center;fillColor=none;html=1;verticalAlign=middle;whiteSpace=wrap;rounded=0;" vertex="1" parent="1">
          <mxGeometry x="330" y="756" width="60" height="30" as="geometry" />
        </mxCell>
        <mxCell id="SqgIeFdHdZ6kIC64qtme-18" value="e0/1 a/shutdown" style="text;strokeColor=none;align=center;fillColor=none;html=1;verticalAlign=middle;whiteSpace=wrap;rounded=0;" vertex="1" parent="1">
          <mxGeometry x="232" y="598" width="128" height="30" as="geometry" />
        </mxCell>
        <mxCell id="SqgIeFdHdZ6kIC64qtme-19" value="e0/1" style="text;strokeColor=none;align=center;fillColor=none;html=1;verticalAlign=middle;whiteSpace=wrap;rounded=0;" vertex="1" parent="1">
          <mxGeometry x="596" y="610" width="60" height="30" as="geometry" />
        </mxCell>
        <mxCell id="SqgIeFdHdZ6kIC64qtme-20" value="e0/1 a/shutdown" style="text;strokeColor=none;align=center;fillColor=none;html=1;verticalAlign=middle;whiteSpace=wrap;rounded=0;" vertex="1" parent="1">
          <mxGeometry x="350" y="700" width="100" height="30" as="geometry" />
        </mxCell>
        <mxCell id="SqgIeFdHdZ6kIC64qtme-21" value="e0/2 Desg" style="text;strokeColor=none;align=center;fillColor=none;html=1;verticalAlign=middle;whiteSpace=wrap;rounded=0;" vertex="1" parent="1">
          <mxGeometry x="430" y="730" width="60" height="30" as="geometry" />
        </mxCell>
        <mxCell id="SqgIeFdHdZ6kIC64qtme-22" value="e0/2&amp;nbsp;&amp;nbsp;Desg" style="text;strokeColor=none;align=center;fillColor=none;html=1;verticalAlign=middle;whiteSpace=wrap;rounded=0;" vertex="1" parent="1">
          <mxGeometry x="278" y="586" width="60" height="30" as="geometry" />
        </mxCell>
        <mxCell id="SqgIeFdHdZ6kIC64qtme-23" value="e0/2&amp;nbsp;&amp;nbsp;root" style="text;strokeColor=none;align=center;fillColor=none;html=1;verticalAlign=middle;whiteSpace=wrap;rounded=0;" vertex="1" parent="1">
          <mxGeometry x="520" y="586" width="60" height="30" as="geometry" />
        </mxCell>
        <mxCell id="SqgIeFdHdZ6kIC64qtme-24" value="Part 3&lt;div&gt;&lt;div&gt;S1 is root&lt;/div&gt;&lt;div&gt;Root ID&amp;nbsp; &amp;nbsp; Priority&amp;nbsp; &amp;nbsp; 32769&lt;/div&gt;&lt;div&gt;Address&amp;nbsp; &amp;nbsp; &amp;nbsp;aabb.cc00.1000&lt;/div&gt;&lt;div&gt;&lt;br&gt;&lt;/div&gt;&lt;div&gt;Et0/0&amp;nbsp; &amp;nbsp; &amp;nbsp; &amp;nbsp; &amp;nbsp; &amp;nbsp; &amp;nbsp; &amp;nbsp;Desg FWD 100&amp;nbsp; &amp;nbsp; &amp;nbsp; &amp;nbsp;128.1&amp;nbsp; &amp;nbsp; Shr&lt;/div&gt;&lt;div&gt;Et0/2&amp;nbsp; &amp;nbsp; &amp;nbsp; &amp;nbsp; &amp;nbsp; &amp;nbsp; &amp;nbsp; &amp;nbsp;Desg FWD 100&amp;nbsp; &amp;nbsp; &amp;nbsp; &amp;nbsp;128.3&amp;nbsp; &amp;nbsp; Shr&lt;/div&gt;&lt;div&gt;&lt;br&gt;&lt;/div&gt;&lt;div&gt;S2&lt;/div&gt;&lt;div&gt;&lt;span style=&quot;background-color: initial;&quot;&gt;Et0/0&amp;nbsp; &amp;nbsp; &amp;nbsp; &amp;nbsp; &amp;nbsp; &amp;nbsp; &amp;nbsp; &amp;nbsp;Root FWD 99&amp;nbsp; &amp;nbsp; &amp;nbsp; &amp;nbsp; 128.1&amp;nbsp; &amp;nbsp; Shr&lt;/span&gt;&lt;/div&gt;&lt;div&gt;&lt;div&gt;Et0/2&amp;nbsp; &amp;nbsp; &amp;nbsp; &amp;nbsp; &amp;nbsp; &amp;nbsp; &amp;nbsp; &amp;nbsp;Desg FWD 100&amp;nbsp; &amp;nbsp; &amp;nbsp; &amp;nbsp;128.3&amp;nbsp; &amp;nbsp; Shr&lt;/div&gt;&lt;/div&gt;&lt;div&gt;&lt;br&gt;&lt;/div&gt;&lt;div&gt;S3&lt;/div&gt;&lt;div&gt;&lt;br&gt;&lt;/div&gt;&lt;div&gt;&lt;div&gt;Et0/0&amp;nbsp; &amp;nbsp; &amp;nbsp; &amp;nbsp; &amp;nbsp; &amp;nbsp; &amp;nbsp; &amp;nbsp;Altn BLK 100&amp;nbsp; &amp;nbsp; &amp;nbsp; &amp;nbsp;128.1&amp;nbsp; &amp;nbsp; Shr&lt;/div&gt;&lt;div&gt;Et0/2&amp;nbsp; &amp;nbsp; &amp;nbsp; &amp;nbsp; &amp;nbsp; &amp;nbsp; &amp;nbsp; &amp;nbsp;Root FWD 100&amp;nbsp; &amp;nbsp; &amp;nbsp; &amp;nbsp;128.3&amp;nbsp; &amp;nbsp; Shr&lt;/div&gt;&lt;/div&gt;&lt;/div&gt;" style="text;strokeColor=none;align=center;fillColor=none;html=1;verticalAlign=middle;whiteSpace=wrap;rounded=0;" vertex="1" parent="1">
          <mxGeometry x="728.5" y="610" width="320" height="30" as="geometry" />
        </mxCell>
        <mxCell id="SqgIeFdHdZ6kIC64qtme-25" value="" style="shape=mxgraph.cisco.switches.workgroup_switch;sketch=0;html=1;pointerEvents=1;dashed=0;fillColor=#036897;strokeColor=#ffffff;strokeWidth=2;verticalLabelPosition=bottom;verticalAlign=top;align=center;outlineConnect=0;" vertex="1" parent="1">
          <mxGeometry x="129" y="1003" width="101" height="50" as="geometry" />
        </mxCell>
        <mxCell id="SqgIeFdHdZ6kIC64qtme-26" value="" style="shape=mxgraph.cisco.switches.workgroup_switch;sketch=0;html=1;pointerEvents=1;dashed=0;fillColor=#036897;strokeColor=#ffffff;strokeWidth=2;verticalLabelPosition=bottom;verticalAlign=top;align=center;outlineConnect=0;" vertex="1" parent="1">
          <mxGeometry x="539" y="1000" width="101" height="50" as="geometry" />
        </mxCell>
        <mxCell id="SqgIeFdHdZ6kIC64qtme-27" value="" style="shape=mxgraph.cisco.switches.workgroup_switch;sketch=0;html=1;pointerEvents=1;dashed=0;fillColor=#036897;strokeColor=#ffffff;strokeWidth=2;verticalLabelPosition=bottom;verticalAlign=top;align=center;outlineConnect=0;" vertex="1" parent="1">
          <mxGeometry x="329" y="1207" width="101" height="50" as="geometry" />
        </mxCell>
        <mxCell id="SqgIeFdHdZ6kIC64qtme-28" value="" style="orthogonalLoop=1;jettySize=auto;html=1;rounded=0;exitX=1;exitY=0;exitDx=0;exitDy=0;exitPerimeter=0;shape=link;" edge="1" parent="1" source="SqgIeFdHdZ6kIC64qtme-27" target="SqgIeFdHdZ6kIC64qtme-26">
          <mxGeometry width="80" relative="1" as="geometry">
            <mxPoint x="479" y="1050" as="sourcePoint" />
            <mxPoint x="559" y="1050" as="targetPoint" />
          </mxGeometry>
        </mxCell>
        <mxCell id="SqgIeFdHdZ6kIC64qtme-29" value="" style="orthogonalLoop=1;jettySize=auto;html=1;rounded=0;shape=link;" edge="1" parent="1" source="SqgIeFdHdZ6kIC64qtme-27" target="SqgIeFdHdZ6kIC64qtme-25">
          <mxGeometry width="80" relative="1" as="geometry">
            <mxPoint x="400" y="1230" as="sourcePoint" />
            <mxPoint x="574" y="1060" as="targetPoint" />
          </mxGeometry>
        </mxCell>
        <mxCell id="SqgIeFdHdZ6kIC64qtme-30" value="" style="orthogonalLoop=1;jettySize=auto;html=1;rounded=0;shape=link;" edge="1" parent="1" source="SqgIeFdHdZ6kIC64qtme-26" target="SqgIeFdHdZ6kIC64qtme-25">
          <mxGeometry width="80" relative="1" as="geometry">
            <mxPoint x="390" y="1120" as="sourcePoint" />
            <mxPoint x="269" y="960" as="targetPoint" />
          </mxGeometry>
        </mxCell>
        <mxCell id="SqgIeFdHdZ6kIC64qtme-31" value="S1 MAC:aabb.cc00.1000&amp;nbsp;" style="text;strokeColor=none;align=center;fillColor=none;html=1;verticalAlign=middle;whiteSpace=wrap;rounded=0;" vertex="1" parent="1">
          <mxGeometry x="80" y="973" width="210" height="30" as="geometry" />
        </mxCell>
        <mxCell id="SqgIeFdHdZ6kIC64qtme-32" value="S3 MAC: aabb.cc00.2000" style="text;strokeColor=none;align=center;fillColor=none;html=1;verticalAlign=middle;whiteSpace=wrap;rounded=0;" vertex="1" parent="1">
          <mxGeometry x="526.5" y="970" width="161" height="30" as="geometry" />
        </mxCell>
        <mxCell id="SqgIeFdHdZ6kIC64qtme-33" value="S2&amp;nbsp; MAC:aabb.cc00.3000" style="text;strokeColor=none;align=center;fillColor=none;html=1;verticalAlign=middle;whiteSpace=wrap;rounded=0;" vertex="1" parent="1">
          <mxGeometry x="290" y="1257" width="170" height="30" as="geometry" />
        </mxCell>
        <mxCell id="SqgIeFdHdZ6kIC64qtme-34" value="e0/3 Desg" style="text;strokeColor=none;align=center;fillColor=none;html=1;verticalAlign=middle;whiteSpace=wrap;rounded=0;" vertex="1" parent="1">
          <mxGeometry x="219" y="1000" width="120" height="30" as="geometry" />
        </mxCell>
        <mxCell id="SqgIeFdHdZ6kIC64qtme-35" value="e0/3 Alth" style="text;strokeColor=none;align=center;fillColor=none;html=1;verticalAlign=middle;whiteSpace=wrap;rounded=0;" vertex="1" parent="1">
          <mxGeometry x="495" y="1000" width="60" height="30" as="geometry" />
        </mxCell>
        <mxCell id="SqgIeFdHdZ6kIC64qtme-36" value="e0/3 Alth" style="text;strokeColor=none;align=center;fillColor=none;html=1;verticalAlign=middle;whiteSpace=wrap;rounded=0;" vertex="1" parent="1">
          <mxGeometry x="433" y="1197" width="120" height="30" as="geometry" />
        </mxCell>
        <mxCell id="SqgIeFdHdZ6kIC64qtme-37" value="e0/0&amp;nbsp;&amp;nbsp;Desg" style="text;strokeColor=none;align=center;fillColor=none;html=1;verticalAlign=middle;whiteSpace=wrap;rounded=0;" vertex="1" parent="1">
          <mxGeometry x="153" y="1053" width="60" height="30" as="geometry" />
        </mxCell>
        <mxCell id="SqgIeFdHdZ6kIC64qtme-38" value="e0/0 Desg" style="text;strokeColor=none;align=center;fillColor=none;html=1;verticalAlign=middle;whiteSpace=wrap;rounded=0;" vertex="1" parent="1">
          <mxGeometry x="493" y="1047" width="60" height="30" as="geometry" />
        </mxCell>
        <mxCell id="SqgIeFdHdZ6kIC64qtme-39" value="e0/0&amp;nbsp;root" style="text;strokeColor=none;align=center;fillColor=none;html=1;verticalAlign=middle;whiteSpace=wrap;rounded=0;" vertex="1" parent="1">
          <mxGeometry x="289" y="1193" width="60" height="30" as="geometry" />
        </mxCell>
        <mxCell id="SqgIeFdHdZ6kIC64qtme-40" value="e0/1 Desg" style="text;strokeColor=none;align=center;fillColor=none;html=1;verticalAlign=middle;whiteSpace=wrap;rounded=0;" vertex="1" parent="1">
          <mxGeometry x="191" y="1035" width="128" height="30" as="geometry" />
        </mxCell>
        <mxCell id="SqgIeFdHdZ6kIC64qtme-41" value="e0/1 Desg" style="text;strokeColor=none;align=center;fillColor=none;html=1;verticalAlign=middle;whiteSpace=wrap;rounded=0;" vertex="1" parent="1">
          <mxGeometry x="567.5" y="1047" width="60" height="30" as="geometry" />
        </mxCell>
        <mxCell id="SqgIeFdHdZ6kIC64qtme-42" value="e0/1 Alth" style="text;strokeColor=none;align=center;fillColor=none;html=1;verticalAlign=middle;whiteSpace=wrap;rounded=0;" vertex="1" parent="1">
          <mxGeometry x="310" y="1150" width="100" height="30" as="geometry" />
        </mxCell>
        <mxCell id="SqgIeFdHdZ6kIC64qtme-43" value="e0/2 Alth" style="text;strokeColor=none;align=center;fillColor=none;html=1;verticalAlign=middle;whiteSpace=wrap;rounded=0;" vertex="1" parent="1">
          <mxGeometry x="389" y="1167" width="60" height="30" as="geometry" />
        </mxCell>
        <mxCell id="SqgIeFdHdZ6kIC64qtme-44" value="e0/2&amp;nbsp;&amp;nbsp;Desg" style="text;strokeColor=none;align=center;fillColor=none;html=1;verticalAlign=middle;whiteSpace=wrap;rounded=0;" vertex="1" parent="1">
          <mxGeometry x="237" y="1023" width="60" height="30" as="geometry" />
        </mxCell>
        <mxCell id="SqgIeFdHdZ6kIC64qtme-45" value="e0/2&amp;nbsp;&amp;nbsp;root" style="text;strokeColor=none;align=center;fillColor=none;html=1;verticalAlign=middle;whiteSpace=wrap;rounded=0;" vertex="1" parent="1">
          <mxGeometry x="479" y="1023" width="60" height="30" as="geometry" />
        </mxCell>
        <mxCell id="SqgIeFdHdZ6kIC64qtme-46" value="Part 3&lt;div&gt;&lt;div&gt;S1 is root&lt;/div&gt;&lt;div&gt;Root ID&amp;nbsp; &amp;nbsp; Priority&amp;nbsp; &amp;nbsp; 32769&lt;/div&gt;&lt;div&gt;Address&amp;nbsp; &amp;nbsp; &amp;nbsp;aabb.cc00.1000&lt;/div&gt;&lt;div&gt;&lt;br&gt;&lt;/div&gt;&lt;div&gt;&lt;div&gt;Et0/0&amp;nbsp; &amp;nbsp; &amp;nbsp; &amp;nbsp; &amp;nbsp; &amp;nbsp; &amp;nbsp; &amp;nbsp;Desg FWD 100&amp;nbsp; &amp;nbsp; &amp;nbsp; &amp;nbsp;128.1&amp;nbsp; &amp;nbsp; Shr&lt;/div&gt;&lt;div&gt;Et0/1&amp;nbsp; &amp;nbsp; &amp;nbsp; &amp;nbsp; &amp;nbsp; &amp;nbsp; &amp;nbsp; &amp;nbsp;Desg FWD 100&amp;nbsp; &amp;nbsp; &amp;nbsp; &amp;nbsp;128.2&amp;nbsp; &amp;nbsp; Shr&lt;/div&gt;&lt;div&gt;Et0/2&amp;nbsp; &amp;nbsp; &amp;nbsp; &amp;nbsp; &amp;nbsp; &amp;nbsp; &amp;nbsp; &amp;nbsp;Desg FWD 100&amp;nbsp; &amp;nbsp; &amp;nbsp; &amp;nbsp;128.3&amp;nbsp; &amp;nbsp; Shr&lt;/div&gt;&lt;div&gt;Et0/3&amp;nbsp; &amp;nbsp; &amp;nbsp; &amp;nbsp; &amp;nbsp; &amp;nbsp; &amp;nbsp; &amp;nbsp;Desg FWD 100&amp;nbsp; &amp;nbsp; &amp;nbsp; &amp;nbsp;128.4&amp;nbsp; &amp;nbsp; Shr&lt;/div&gt;&lt;/div&gt;&lt;div&gt;S2&lt;/div&gt;&lt;div&gt;&lt;div&gt;Et0/0&amp;nbsp; &amp;nbsp; &amp;nbsp; &amp;nbsp; &amp;nbsp; &amp;nbsp; &amp;nbsp; &amp;nbsp;Root FWD 100&amp;nbsp; &amp;nbsp; &amp;nbsp; &amp;nbsp;128.1&amp;nbsp; &amp;nbsp; Shr&lt;/div&gt;&lt;div&gt;Et0/1&amp;nbsp; &amp;nbsp; &amp;nbsp; &amp;nbsp; &amp;nbsp; &amp;nbsp; &amp;nbsp; &amp;nbsp;Altn BLK 100&amp;nbsp; &amp;nbsp; &amp;nbsp; &amp;nbsp;128.2&amp;nbsp; &amp;nbsp; Shr&lt;/div&gt;&lt;div&gt;Et0/2&amp;nbsp; &amp;nbsp; &amp;nbsp; &amp;nbsp; &amp;nbsp; &amp;nbsp; &amp;nbsp; &amp;nbsp;Altn BLK 100&amp;nbsp; &amp;nbsp; &amp;nbsp; &amp;nbsp;128.3&amp;nbsp; &amp;nbsp; Shr&lt;/div&gt;&lt;div&gt;Et0/3&amp;nbsp; &amp;nbsp; &amp;nbsp; &amp;nbsp; &amp;nbsp; &amp;nbsp; &amp;nbsp; &amp;nbsp;Altn BLK 100&amp;nbsp; &amp;nbsp; &amp;nbsp; &amp;nbsp;128.4&amp;nbsp; &amp;nbsp; Shr&lt;/div&gt;&lt;/div&gt;&lt;div&gt;&lt;br&gt;&lt;/div&gt;&lt;div&gt;S3&lt;/div&gt;&lt;div&gt;&lt;br&gt;&lt;/div&gt;&lt;div&gt;&lt;div&gt;Et0/0&amp;nbsp; &amp;nbsp; &amp;nbsp; &amp;nbsp; &amp;nbsp; &amp;nbsp; &amp;nbsp; &amp;nbsp;Desg FWD 100&amp;nbsp; &amp;nbsp; &amp;nbsp; &amp;nbsp;128.1&amp;nbsp; &amp;nbsp; Shr&lt;/div&gt;&lt;div&gt;Et0/1&amp;nbsp; &amp;nbsp; &amp;nbsp; &amp;nbsp; &amp;nbsp; &amp;nbsp; &amp;nbsp; &amp;nbsp;Desg FWD 100&amp;nbsp; &amp;nbsp; &amp;nbsp; &amp;nbsp;128.2&amp;nbsp; &amp;nbsp; Shr&lt;/div&gt;&lt;div&gt;Et0/2&amp;nbsp; &amp;nbsp; &amp;nbsp; &amp;nbsp; &amp;nbsp; &amp;nbsp; &amp;nbsp; &amp;nbsp;Root FWD 100&amp;nbsp; &amp;nbsp; &amp;nbsp; &amp;nbsp;128.3&amp;nbsp; &amp;nbsp; Shr&lt;/div&gt;&lt;div&gt;Et0/3&amp;nbsp; &amp;nbsp; &amp;nbsp; &amp;nbsp; &amp;nbsp; &amp;nbsp; &amp;nbsp; &amp;nbsp;Altn BLK 100&amp;nbsp; &amp;nbsp; &amp;nbsp; &amp;nbsp;128.4&amp;nbsp; &amp;nbsp; Shr&lt;/div&gt;&lt;/div&gt;&lt;/div&gt;" style="text;strokeColor=none;align=center;fillColor=none;html=1;verticalAlign=middle;whiteSpace=wrap;rounded=0;" vertex="1" parent="1">
          <mxGeometry x="687.5" y="1047" width="320" height="30" as="geometry" />
        </mxCell>
      </root>
    </mxGraphModel>
  </diagram>
</mxfile>
